<svg width="16" height="22" viewBox="0 0 16 22" fill="none" xmlns="http://www.w3.org/2000/svg">
<path fill-rule="evenodd" clip-rule="evenodd" d="M1.14342 4.03487C0.841527 4.48771 1.10732 5.10122 1.64416 5.19069L3.1199 5.43665C4.20482 5.61747 5 6.55615 5 7.65604V8.69722C5 9.19875 4.74935 9.6671 4.33205 9.9453L2.16987 11.3868C1.12663 12.0822 0.5 13.2531 0.5 14.5069V18.5C0.5 20.1569 1.84315 21.5 3.5 21.5H12.5C14.1569 21.5 15.5 20.1569 15.5 18.5V15.1798C15.5 13.9688 14.9151 12.8322 13.9296 12.1283L10.8781 9.94867C10.484 9.66711 10.25 9.2125 10.25 8.72807V7.70142C10.25 7.03493 10.5417 6.42882 11.0116 6.01395C11.019 6.21891 11.0311 6.41925 11.0508 6.61168C11.1025 7.11586 11.212 7.63274 11.4738 8.09085C12.0488 9.09712 13.149 9.5 14.75 9.5C15.1642 9.5 15.5 9.16421 15.5 8.75C15.5 8.33579 15.1642 8 14.75 8C13.351 8 12.9512 7.65288 12.7762 7.34665C12.663 7.14851 12.585 6.86852 12.543 6.45863C12.5118 6.15454 12.5032 5.81594 12.5009 5.42845L14.8561 5.09199C15.2256 5.03921 15.5 4.72277 15.5 4.34953V1.25C15.5 0.835786 15.1642 0.5 14.75 0.5H5.10555C4.10249 0.5 3.1658 1.0013 2.6094 1.8359L1.14342 4.03487ZM2 15.5H10.25C10.6642 15.5 11 15.1642 11 14.75C11 14.3358 10.6642 14 10.25 14H2.05781C2.18562 13.4474 2.51954 12.9564 3.00192 12.6348L5.1641 11.1934C5.9987 10.637 6.5 9.70028 6.5 8.69722V8H8.75V8.72807C8.75 9.69693 9.2179 10.6061 10.0063 11.1693L13.0578 13.3489C13.6491 13.7713 14 14.4532 14 15.1798V18.5C14 19.3284 13.3284 20 12.5 20H3.5C2.67157 20 2 19.3284 2 18.5V15.5ZM14 2H12.5V3.91334L14 3.69906V2ZM5.10555 2H11V4.26387C10.0302 4.6868 9.28419 5.50331 8.94706 6.5H6.31791C5.89592 5.19784 4.77843 4.19238 3.3665 3.95706L3.03491 3.90179L3.85748 2.66795C4.13567 2.25065 4.60402 2 5.10555 2Z" fill="white"/>
</svg>
